<svg width="25" height="25" xmlns="http://www.w3.org/2000/svg" stroke-width="0.00048000000000000007" stroke="#052D4D" fill="none">

 <g>
  <title>Layer 1</title>
  <g stroke-width="0" id="SVGRepo_bgCarrier"/>
  <g stroke-linejoin="round" stroke-linecap="round" id="SVGRepo_tracerCarrier"/>
  <g id="SVGRepo_iconCarrier">
   <path id="svg_1" fill="#052D4D" d="m10.10013,18.29237c5.30201,0 9.60008,-3.42331 9.60008,-7.64615c0,-4.22284 -4.29808,-7.64615 -9.60008,-7.64615c-5.30201,0 -9.60008,3.42331 -9.60008,7.64615c0,1.71032 0.70506,3.2895 1.89631,4.56322c-0.48293,1.46048 -1.1086,2.55554 -1.50637,3.16697c-0.14568,0.22397 0.00434,0.54052 0.2598,0.51828c1.02099,-0.08889 3.02373,-0.40448 4.37476,-1.52503c1.36021,0.58844 2.91891,0.9227 4.57558,0.9227z" clip-rule="evenodd" fill-rule="evenodd"/>
   <path id="svg_2" fill="#052D4D" d="m11.77073,19.46077c5.17145,-0.66324 9.1295,-4.35703 9.1295,-8.81442c0,-0.34217 -0.02334,-0.67981 -0.0687,-1.0119c2.20076,1.07569 3.66873,3.00997 3.66873,5.21729c0,1.36828 -0.56406,2.63161 -1.51705,3.65059c0.35784,1.08212 0.81361,1.91345 1.13179,2.41899c0.14244,0.22626 -0.00936,0.54288 -0.26454,0.51694c-0.84775,-0.08608 -2.34368,-0.35676 -3.36981,-1.20771c-1.08811,0.47075 -2.3351,0.73811 -3.66045,0.73811c-1.93316,0 -3.69945,-0.56887 -5.04946,-1.50789z" clip-rule="evenodd" fill-rule="evenodd"/>
  </g>
 </g>
</svg>