<svg width="18" height="20" xmlns="http://www.w3.org/2000/svg" xml:space="preserve" version="1.1">

 <g>
  <title>Layer 1</title>
  <g id="svg_1">
   <path id="svg_2" clip-rule="evenodd" fill-rule="evenodd" d="m2.68472,0.33333l9.11917,0c0.69247,0 1.32198,0.30701 1.77874,0.80331c0.45676,0.4963 0.73931,1.18031 0.73931,1.93272l0,6.1004c0,0.75241 -0.28255,1.43642 -0.73931,1.93272c-0.45676,0.4963 -1.08628,0.80331 -1.77874,0.80331l-4.7682,0l-3.82247,3.57116c-0.17714,0.16543 -0.44505,0.14316 -0.59731,-0.0509c-0.07466,-0.09544 -0.10833,-0.21316 -0.10102,-0.32928l0.20349,-3.19257l-0.03367,0c-0.69247,0 -1.32198,-0.30701 -1.77874,-0.80331c-0.45676,-0.49471 -0.73931,-1.17872 -0.73931,-1.93113l0,-6.1004c0,-0.75241 0.28255,-1.43642 0.73931,-1.93272c0.4553,-0.4963 1.08481,-0.80331 1.77874,-0.80331l0,0l0,0zm6.72263,4.67194c0.65587,0 1.18729,0.57743 1.18729,1.29007c0,0.71264 -0.53143,1.29007 -1.18729,1.29007c-0.65587,0 -1.18729,-0.57743 -1.18729,-1.29007c0,-0.71264 0.53143,-1.29007 1.18729,-1.29007l0,0zm-4.30851,0c0.65587,0 1.18729,0.57743 1.18729,1.29007c0,0.71264 -0.53143,1.29007 -1.18729,1.29007s-1.18729,-0.57743 -1.18729,-1.29007c0,-0.71264 0.53143,-1.29007 1.18729,-1.29007l0,0zm10.70174,-0.22111c0.49336,0.1034 0.93549,0.36746 1.27806,0.73968c0.44652,0.48517 0.72467,1.15486 0.72467,1.89295l0,6.1004c0,0.73809 -0.27669,1.40779 -0.72467,1.89295c-0.44652,0.48517 -1.06285,0.78741 -1.74214,0.78741l-0.0893,0l0.20789,3.25143l0,0c0.00586,0.10181 -0.02196,0.20679 -0.08784,0.28951c-0.13322,0.17021 -0.36892,0.1893 -0.52411,0.04454l-3.83711,-3.69047l-5.05807,0l2.49024,-2.75194l5.27621,0c1.15069,0 2.0935,-1.02283 2.0935,-2.27473l0,-6.102c-0.00146,-0.06045 -0.00293,-0.12089 -0.00732,-0.17975l0,0l0,0zm-3.99815,-3.52821l-9.11771,0c-0.45823,0 -0.87546,0.20361 -1.17851,0.53289c-0.30305,0.32928 -0.49044,0.78104 -0.49044,1.28053l0,6.1004c0,0.49789 0.18739,0.95125 0.49044,1.28053c0.30305,0.32928 0.72028,0.53289 1.17851,0.53289l0.48897,0l0,0.00159l0.02782,0.00159c0.23277,0.0175 0.40992,0.23702 0.39381,0.48994l-0.16543,2.58651l3.15343,-2.94601c0.07613,-0.08272 0.18153,-0.13362 0.29865,-0.13362l4.92046,0c0.45823,0 0.87546,-0.20361 1.17851,-0.53289c0.30305,-0.32928 0.49044,-0.78263 0.49044,-1.28053l0,-6.1004c0,-0.49789 -0.18739,-0.95125 -0.49044,-1.28053c-0.30305,-0.32928 -0.72028,-0.53289 -1.17851,-0.53289l0,0l0,0z" class="st0"/>
  </g>
 </g>
</svg>