<svg width="18" height="20" xmlns="http://www.w3.org/2000/svg" xml:space="preserve" version="1.1">

 <g>
  <title>Layer 1</title>
  <g id="svg_1">
   <path id="svg_2" clip-rule="evenodd" fill-rule="evenodd" d="m2.56565,0l9.29152,0c0.70555,0 1.34696,0.31486 1.81236,0.82386c0.4654,0.509 0.75329,1.2105 0.75329,1.98216l0,6.25645c0,0.77166 -0.28789,1.47316 -0.75329,1.98216c-0.4654,0.509 -1.10681,0.82386 -1.81236,0.82386l-4.85832,0l-3.89471,3.66251c-0.18049,0.16967 -0.45346,0.14683 -0.6086,-0.05221c-0.07607,-0.09788 -0.11038,-0.21861 -0.10292,-0.3377l0.20734,-3.27423l-0.03431,0c-0.70555,0 -1.34696,-0.31486 -1.81236,-0.82386c-0.4654,-0.50737 -0.75329,-1.20887 -0.75329,-1.98053l0,-6.25645c0,-0.77166 0.28789,-1.47316 0.75329,-1.98216c0.4639,-0.509 1.10532,-0.82386 1.81236,-0.82386l0,0l0,0zm6.84968,4.79144c0.66826,0 1.20973,0.5922 1.20973,1.32307c0,0.73087 -0.54147,1.32307 -1.20973,1.32307c-0.66826,0 -1.20973,-0.5922 -1.20973,-1.32307c0,-0.73087 0.54147,-1.32307 1.20973,-1.32307l0,0zm-4.38994,0c0.66826,0 1.20973,0.5922 1.20973,1.32307c0,0.73087 -0.54147,1.32307 -1.20973,1.32307s-1.20973,-0.5922 -1.20973,-1.32307c0,-0.73087 0.54147,-1.32307 1.20973,-1.32307l0,0zm10.904,-0.22677c0.50269,0.10604 0.95317,0.37686 1.30222,0.7586c0.45495,0.49758 0.73837,1.1844 0.73837,1.94137l0,6.25645c0,0.75697 -0.28192,1.4438 -0.73837,1.94137c-0.45495,0.49758 -1.08294,0.80755 -1.77507,0.80755l-0.09099,0l0.21182,3.3346l0,0c0.00597,0.10441 -0.02237,0.21208 -0.0895,0.29692c-0.13574,0.17456 -0.3759,0.19414 -0.53401,0.04568l-3.90963,-3.78487l-5.15367,0l2.53731,-2.82233l5.37593,0c1.17244,0 2.13307,-1.04899 2.13307,-2.33291l0,-6.25808c-0.00149,-0.06199 -0.00298,-0.12399 -0.00746,-0.18435l0,0l0,0zm-4.07371,-3.61846l-9.29003,0c-0.46689,0 -0.89201,0.20882 -1.20078,0.54652c-0.30877,0.3377 -0.4997,0.80102 -0.4997,1.31328l0,6.25645c0,0.51063 0.19093,0.97558 0.4997,1.31328c0.30877,0.3377 0.73389,0.54652 1.20078,0.54652l0.49821,0l0,0.00163l0.02834,0.00163c0.23717,0.01795 0.41766,0.24308 0.40126,0.50247l-0.16856,2.65267l3.21303,-3.02137c0.07757,-0.08483 0.18497,-0.13704 0.3043,-0.13704l5.01345,0c0.46689,0 0.89201,-0.20882 1.20078,-0.54652c0.30877,-0.3377 0.4997,-0.80265 0.4997,-1.31328l0,-6.25645c0,-0.51063 -0.19093,-0.97558 -0.4997,-1.31328c-0.30877,-0.3377 -0.73389,-0.54652 -1.20078,-0.54652l0,0l0,0z" class="st0"/>
  </g>
 </g>
</svg>