<?xml version="1.0" encoding="UTF-8"?>
<svg width="18px" height="20px" viewBox="0 0 18 20" version="1.1" xmlns="http://www.w3.org/2000/svg" xmlns:xlink="http://www.w3.org/1999/xlink">
    <!-- Generator: Sketch 61 (89581) - https://sketch.com -->
    <title>Group 3</title>
    <desc>Created with Sketch.</desc>
    <defs>
        <polygon id="path-1" points="0 2.4039053e-05 17.73013 2.4039053e-05 17.73013 19.5412681 0 19.5412681"></polygon>
    </defs>
    <g id="Symbols" stroke="none" stroke-width="1" fill="none" fill-rule="evenodd">
        <g id="theme/footer" transform="translate(-296.000000, -267.000000)">
            <g id="Group-9" transform="translate(114.000000, 0.000000)">
                <g id="Group-8" transform="translate(3.000000, 254.000000)">
                    <g id="Group-4" transform="translate(166.000000, 0.000000)">
                        <g id="Group-3" transform="translate(13.000000, 13.000000)">
                            <mask id="mask-2" fill="white">
                                <use xlink:href="#path-1"></use>
                            </mask>
                            <g id="Clip-2"></g>
                            <path d="M11.8379342,13.3320018 C12.3012633,13.731806 12.7141758,14.5222889 12.7141758,15.7307764 C12.7141758,17.2796268 12.7010675,18.5601598 12.6985467,19.1178185 C11.6352592,19.394606 10.5200425,19.5412681 9.37003833,19.5412681 C8.31229667,19.5412681 7.2832925,19.4167389 6.29764667,19.1817973 C6.29613417,18.8173352 6.28605083,18.0580098 6.28000083,17.0814389 C2.69033417,17.863956 1.9320675,15.3435764 1.9320675,15.3435764 C1.34673,13.846756 0.49973,13.4479602 0.49973,13.4479602 C-0.673465833,12.6447723 0.586950833,12.6609056 0.586950833,12.6609056 C1.882155,12.7527143 2.56328417,13.9964935 2.56328417,13.9964935 C3.71480083,15.9763056 5.584755,15.4050848 6.32033417,15.0728389 C6.43679667,14.2354685 6.770555,13.6642477 7.14010917,13.3400181 C4.27493,13.0123098 1.26102167,11.9006223 1.26102167,6.93659725 C1.26102167,5.52190558 1.76468417,4.3648935 2.59050917,3.45840183 C2.45640083,3.1306935 2.01475083,1.81280183 2.71655083,0.0300685 C2.71655083,0.0300685 3.80050917,-0.318310667 6.26588417,1.35753933 C7.29488833,1.07061808 8.39850917,0.926981 9.49708833,0.921939333 C10.5926425,0.9284935 11.6977758,1.07061808 12.7287967,1.359556 C15.192155,-0.316798167 16.2746008,0.0315305833 16.2746008,0.0315305833 C16.9784175,1.81582683 16.5362633,3.13215558 16.4036675,3.45986392 C17.2315092,4.36635558 17.73013,5.5234685 17.73013,6.93816017 C17.73013,11.9152431 14.7131967,13.0108477 11.8379342,13.3320018" id="Fill-1" fill="#052D4D" mask="url(#mask-2)"></path>
                        </g>
                    </g>
                </g>
            </g>
        </g>
    </g>
</svg>