<?xml version="1.0" encoding="UTF-8"?>
<svg width="18px" height="16px" viewBox="0 0 18 16" version="1.1" xmlns="http://www.w3.org/2000/svg" xmlns:xlink="http://www.w3.org/1999/xlink">
    <!-- Generator: Sketch 61 (89581) - https://sketch.com -->
    <title>Group Copy 14</title>
    <desc>Created with Sketch.</desc>
    <g id="Symbols" stroke="none" stroke-width="1" fill="none" fill-rule="evenodd">
        <g id="theme/footer" transform="translate(-352.000000, -266.000000)" fill="#052D4D">
            <g id="Group-9" transform="translate(114.000000, 0.000000)">
                <g id="Group-8" transform="translate(3.000000, 254.000000)">
                    <g id="Group-5" transform="translate(221.000000, 0.000000)">
                        <g id="Group-Copy-14" transform="translate(14.000000, 12.000000)">
                            <g id="Group-6" transform="translate(0.000000, 0.000000)">
                                <path d="M17.0368,15.8198857 L13.4491057,15.8198857 L13.4491057,10.0947958 C13.4491057,8.65631879 12.9292173,7.67474256 11.6317603,7.67474256 C10.6392008,7.67474256 10.0500049,8.33695111 9.79127565,8.97629258 C9.695405,9.20463276 9.67165823,9.52400044 9.67165823,9.84292731 L9.67165823,15.8196653 L6.08457143,15.8196653 C6.08457143,15.8196653 6.13151271,6.1229771 6.08457143,5.11941541 L9.67221048,5.11941541 L9.67221048,6.63641189 C10.1484712,5.90747555 10.9995442,4.86765714 12.9047526,4.86765714 C15.266175,4.86765714 17.0368,6.39611471 17.0368,9.68429039 L17.0368,15.8198857 Z" id="Path-Copy"></path>
                                <path d="M1.81578235,3.65074286 L1.7939572,3.65074286 C0.705546586,3.65074286 4.4408921e-16,2.83982939 4.4408921e-16,1.8246097 C4.4408921e-16,0.78893218 0.726272985,-3.40616424e-13 1.83625903,-3.40616424e-13 C2.94634496,-3.40616424e-13 3.62916743,0.788714544 3.65074286,1.8246097 C3.65074286,2.84004703 2.94659468,3.65074286 1.81578235,3.65074286 L1.81578235,3.65074286 Z" id="Path-Copy-2"></path>
                                <polygon id="Path-Copy-3" points="4.4408921e-16 15.8198857 3.65074286 15.8198857 3.65074286 4.86765714 4.4408921e-16 4.86765714"></polygon>
                            </g>
                        </g>
                    </g>
                </g>
            </g>
        </g>
    </g>
</svg>