<?xml version="1.0" encoding="utf-8"?>
<!-- Generator: Adobe Illustrator 25.0.1, SVG Export Plug-In . SVG Version: 6.00 Build 0)  -->
<svg version="1.1" id="Laag_1" xmlns="http://www.w3.org/2000/svg" xmlns:xlink="http://www.w3.org/1999/xlink" x="0px" y="0px"
	 viewBox="0 0 20 20" style="enable-background:new 0 0 20 20;" xml:space="preserve">
<style type="text/css">
	.st0{fill:#FFFFFF;}
</style>
<desc>Created with Sketch.</desc>
<g id="_x5B_Example-pages-_x26_-Sketches_x5D_">
	<g id="theme_x2F_menu_x2F_mobile_x2F_expanded2" transform="translate(-285.000000, -19.000000)">
		<g id="Group" transform="translate(285.000000, 19.000000)">
			<path id="Combined-Shape" class="st0" d="M2.6,2.6C5.5-0.1,10.1,0,12.9,2.8c2.7,2.7,2.9,6.8,0.7,9.7l5.7,5.7l-1.4,1.4L12.2,14
				c-2.9,2.2-7,2-9.7-0.7c-2.9-2.9-2.9-7.6,0-10.4l0,0L2.6,2.6z M11.5,4.3C9.4,2.1,6,2.1,3.9,4.2c-2.1,2.1-2.1,5.5,0,7.6
				s5.5,2.1,7.6,0S13.6,6.4,11.5,4.3z"/>
		</g>
	</g>
</g>
</svg>
