<?xml version="1.0" encoding="UTF-8"?>
<svg width="20px" height="20px" viewBox="0 0 20 20" version="1.1" xmlns="http://www.w3.org/2000/svg" xmlns:xlink="http://www.w3.org/1999/xlink">
    <!-- Generator: Sketch 61 (89581) - https://sketch.com -->
    <title>Group</title>
    <desc>Created with Sketch.</desc>
    <g id="[Example-pages-&amp;-Sketches]" stroke="none" stroke-width="1" fill="none" fill-rule="evenodd">
        <g id="theme/menu/mobile/expanded2" transform="translate(-285.000000, -19.000000)" fill="#052D4D" fill-rule="nonzero">
            <g id="Group" transform="translate(285.000000, 19.000000)">
                <path d="M2.63792187,2.63247647 C5.52895948,-0.0563917997 10.064419,0.0197754232 12.8906068,2.84709322 C15.5411201,5.4976065 15.7737869,9.64843785 13.5771725,12.5390321 L19.2295068,18.1922932 L17.8152932,19.6065068 L12.1623321,13.9538725 C9.27173785,16.1504869 5.1209065,15.9178201 2.47039322,13.2673068 C-0.421159668,10.3757539 -0.435108525,5.69859496 2.44339322,2.82009322 L2.44339322,2.82009322 Z M11.4762519,4.26116543 C9.36487529,2.14894461 5.9531431,2.13877046 3.85760678,4.23430678 C1.76204814,6.32986542 1.77222041,9.74070685 3.88460678,11.8530932 C5.99699315,13.9654796 9.40783458,13.9756519 11.5033932,11.8800932 C13.5989519,9.78453458 13.5887796,6.37369315 11.4762519,4.26116543 Z" id="Combined-Shape"></path>
            </g>
        </g>
    </g>
</svg>