<?xml version="1.0" encoding="UTF-8"?>
<svg width="19px" height="14px" viewBox="0 0 19 14" version="1.1" xmlns="http://www.w3.org/2000/svg" xmlns:xlink="http://www.w3.org/1999/xlink">
    <title>twitter_icon-path copy 7</title>
    <g id="[Visual-Design]" stroke="none" stroke-width="1" fill="none" fill-rule="evenodd">
        <g id="1-Menu-&amp;-Footer" transform="translate(-130.000000, -9360.000000)" fill="#052D4D">
            <g id="theme/footer-copy" transform="translate(114.000000, 9091.000000)">
                <g id="Group-8" transform="translate(3.000000, 254.000000)">
                    <path d="M31.4773736,15.2579571 C30.7096347,15.6705055 29.8717416,15.9604708 28.9991127,16.1155958 C28.2561609,15.3986207 27.225689,14.9951523 26.1499556,15 C24.0182295,14.9913864 22.2786962,16.5702254 22.2555457,18.5346965 C22.254808,18.8056999 22.2887604,19.0758374 22.3566992,19.3395097 C19.2375411,19.2021685 16.3249968,17.8617809 14.3318545,15.6463804 C13.9865458,16.1844393 13.8059341,16.7986902 13.809228,17.4238057 C13.806281,18.6090034 14.4531475,19.7153743 15.5288376,20.3649474 C14.9144517,20.3482526 14.3132997,20.1964318 13.7755102,19.9221447 L13.7755102,19.9672018 C13.7820306,21.6612876 15.0891545,23.1140019 16.8944099,23.4334919 C16.3220745,23.5732642 15.7231694,23.5939621 15.1410825,23.4940859 C15.6608253,24.9453276 17.1244223,25.9313471 18.7826087,25.9473678 C17.3953403,26.9303472 15.6940088,27.4624575 13.9440994,27.4606652 C13.6286696,27.460902 13.3134741,27.4448219 13,27.4125007 C14.7924627,28.4513843 16.8674475,29.0013656 18.9849157,28.9988217 C21.9073717,29.0400314 24.7255513,27.9987857 26.8077526,26.1084824 C28.8899539,24.218179 30.0620182,21.6369261 30.0612245,18.9433179 L30.0612245,18.486532 C30.8196538,17.9873297 31.4760657,17.368187 32,16.6578349 C31.2863055,16.9434776 30.5307369,17.1303848 29.757764,17.2125034 C30.7215599,16.8427244 31.2947631,16.1912089 31.4773736,15.2579571 Z" id="twitter_icon-path-copy-7"></path>
                </g>
            </g>
        </g>
    </g>
</svg>