<?xml version="1.0" encoding="UTF-8"?>
<svg width="25px" height="25px" viewBox="0 0 25 25" version="1.1" xmlns="http://www.w3.org/2000/svg" xmlns:xlink="http://www.w3.org/1999/xlink">
    <!-- Generator: Sketch 61 (89581) - https://sketch.com -->
    <title>Group 6 Copy</title>
    <desc>Created with Sketch.</desc>
    <defs>
        <polygon id="path-1" points="1.3293913e-05 0.00201402783 24.8576233 0.00201402783 24.8576233 24.8596174 1.3293913e-05 24.8596174"></polygon>
    </defs>
    <g id="Symbols" stroke="none" stroke-width="1" fill="none" fill-rule="evenodd">
        <g id="theme/footer" transform="translate(-238.000000, -263.000000)">
            <g id="Group-9" transform="translate(114.000000, 0.000000)">
                <g id="Group-8" transform="translate(3.000000, 254.000000)">
                    <g id="Group-7" transform="translate(111.000000, 0.000000)">
                        <g id="Group">
                            <g id="Group-6-Copy" transform="translate(10.000000, 9.000000)">
                                <g id="Group-3" transform="translate(0.000000, 0.064475)">
                                    <mask id="mask-2" fill="white">
                                        <use xlink:href="#path-1"></use>
                                    </mask>
                                    <g id="Clip-2"></g>
                                    <path d="M19.7602186,19.7624187 C17.8018258,21.7206121 15.1980135,22.7990808 12.4284926,22.7990808 C10.7097226,22.7990808 9.03901006,22.3775973 7.54231486,21.5759743 C10.2712893,19.4606469 12.0283458,16.1509278 12.0283458,12.431158 C12.0283458,8.71078999 10.2712893,5.40093799 7.54231486,3.2859429 C9.03867771,2.484187 10.7093902,2.06257055 12.4284926,2.06257055 C15.197947,2.06257055 17.8017593,3.14103925 19.7601521,5.09943205 C21.7185449,7.05789131 22.7970801,9.66163712 22.7970801,12.431158 C22.7970801,15.200546 21.7185449,17.8041589 19.7602186,19.7624187 M12.4284926,0.00201402783 C9.89799625,0.00201402783 7.54430895,0.75843768 5.58079799,2.05791768 C4.95026769,2.47494773 4.36001795,2.94787869 3.81709455,3.46973125 C2.11547368,5.10514843 0.879472111,7.22094116 0.325182407,9.59882338 C0.313217885,9.65007142 0.301652181,9.70151886 0.290285885,9.75303278 C0.100847624,10.6157413 1.3293913e-05,11.5115516 1.3293913e-05,12.431158 C1.3293913e-05,16.3586452 1.8216782,19.8603949 4.6661103,22.1377751 C4.96037107,22.3733432 5.26553284,22.5958833 5.58079799,22.8043984 C7.54430895,24.1032137 9.89799625,24.8596373 12.4284926,24.8596373 C19.2928046,24.8596373 24.8576366,19.29547 24.8576366,12.431158 C24.8576366,5.56684603 19.2928046,0.00201402783 12.4284926,0.00201402783" id="Fill-1" fill="#1B496D" mask="url(#mask-2)"></path>
                                </g>
                                <path d="M18.3877949,12.4954407 C18.3877949,9.20433316 15.7198395,6.53644422 12.4287984,6.53644422 C9.13769078,6.53644422 6.46973537,9.20433316 6.46973537,12.4954407 C6.46973537,15.7864819 9.13769078,18.4544373 12.4287984,18.4544373 C15.7198395,18.4544373 18.3877949,15.7864819 18.3877949,12.4954407" id="Fill-4" fill="#052D4D"></path>
                            </g>
                        </g>
                    </g>
                </g>
            </g>
        </g>
    </g>
</svg>