<?xml version="1.0" encoding="UTF-8"?>
<svg width="22px" height="16px" viewBox="0 0 22 16" version="1.1" xmlns="http://www.w3.org/2000/svg" xmlns:xlink="http://www.w3.org/1999/xlink">
    <title>youtube copy 2</title>
    <g id="[Visual-Design]" stroke="none" stroke-width="1" fill="none" fill-rule="evenodd">
        <g id="1-Menu-&amp;-Footer" transform="translate(-185.000000, -9359.000000)" fill="#052D4D" fill-rule="nonzero">
            <g id="theme/footer-copy" transform="translate(114.000000, 9091.000000)">
                <g id="Group-8" transform="translate(3.000000, 254.000000)">
                    <g id="Group-2" transform="translate(56.000000, 0.000000)">
                        <g id="youtube-copy-2" transform="translate(12.000000, 14.000000)">
                            <g id="Shape-2" transform="translate(0.000000, 0.030390)">
                                <path d="M20.7510039,2.32127155 C20.5068501,1.41358326 19.7912001,0.698062596 18.8836412,0.453650175 C17.2256455,-1.22568622e-12 10.5935334,-1.22568622e-12 10.5935334,-1.22568622e-12 C10.5935334,-1.22568622e-12 3.96167991,-1.22568622e-12 2.30368423,0.436450756 C1.41358326,0.680604556 0.680475279,1.41371257 0.436321479,2.32127155 C4.79616347e-14,3.97913792 4.79616347e-14,7.41733554 4.79616347e-14,7.41733554 C4.79616347e-14,7.41733554 4.79616347e-14,10.8728618 0.436321479,12.5133995 C0.6807339,13.4209585 1.39612523,14.1364792 2.30381354,14.3808916 C3.97913792,14.8346711 10.593792,14.8346711 10.593792,14.8346711 C10.593792,14.8346711 17.2256455,14.8346711 18.8836412,14.3982203 C19.7913295,14.1539372 20.5068501,13.4384165 20.7512625,12.5308576 C21.1875438,10.8728618 21.1875438,7.43479357 21.1875438,7.43479357 C21.1875438,7.43479357 21.2049127,3.97913792 20.7510039,2.32127155 L20.7510039,2.32127155 Z M8.48201683,10.5936627 L8.48201683,4.24100841 L13.9969442,7.41733554 L8.48201683,10.5936627 Z" id="Shape"></path>
                            </g>
                        </g>
                    </g>
                </g>
            </g>
        </g>
    </g>
</svg>